<svg width="512" height="512" version="1.1" viewBox="0 0 512 512" xmlns="http://www.w3.org/2000/svg">
<path d="m390.14 453.7c9.222 0 16.767-6.8435 16.767-15.208v-273.74h-83.837c-18.549 0-33.535-13.592-33.535-30.416v-76.039h-167.67c-9.222 0-16.767 6.8435-16.767 15.208v364.99c0 8.3643 7.5453 15.208 16.767 15.208zm-335.35-380.19c0-33.552 30.076-60.831 67.069-60.831h173.44c17.815 0 34.897 6.3683 47.472 17.774l94.84 86.019c12.575 11.406 19.597 26.899 19.597 43.057v278.97c0 33.552-30.076 60.831-67.069 60.831h-268.28c-36.993 0-67.069-27.279-67.069-60.831z" fill="#fff" stroke-width=".99803"/>
</svg>
