<svg width="512" height="512" version="1.1" viewBox="0 0 512 512" xmlns="http://www.w3.org/2000/svg">
<path d="m334.83 449.27h39.41c9.3598 0 17.981-5.1769 22.661-13.719l91.956-165.66c4.762-8.5418 4.762-19.068 0.0821-27.696-4.6799-8.6281-13.301-13.805-22.743-13.805h-328.41c-9.3598 0-17.981 5.1769-22.661 13.719l-56.159 101.12v-225.28c0-7.5927 5.9114-13.805 13.137-13.805h96.471c3.4483 0 6.8146 1.4668 9.2777 4.0552l21.757 22.864c17.242 18.119 40.641 28.3 65.026 28.3h96.471c7.2251 0 13.137 6.2122 13.137 13.805v27.61h39.41v-27.61c0-30.457-23.564-55.22-52.546-55.22h-96.471c-13.958 0-27.34-5.7808-37.193-16.135l-21.757-22.951c-9.8524-10.354-23.235-16.135-37.193-16.135h-96.389c-28.982 0-52.546 24.763-52.546 55.22v276.1c0 30.457 23.564 55.22 52.546 55.22h19.458z" fill="#fff" stroke-width=".84166"/>
</svg>
