<svg version="1.1" viewBox="0 0 512 512" xmlns="http://www.w3.org/2000/svg">
<path d="m15.746 92.954c0-35.972 26.935-65.218 60.063-65.218h123.97c17.925 0 35.1 7.7447 47.769 21.502l40.261 43.717h148.38c33.129 0 60.063 29.246 60.063 65.218v260.87c0 35.972-26.935 65.218-60.063 65.218h-360.38c-33.129 0-60.063-29.246-60.063-65.218zm60.063-16.305c-8.2587 0-15.016 7.3371-15.016 16.305v326.09c0 8.9675 6.7571 16.305 15.016 16.305h360.38c8.2587 0 15.016-7.3371 15.016-16.305v-260.87c0-8.9675-6.7571-16.305-15.016-16.305h-151.47c-9.948 0-19.521-4.28-26.559-11.923l-42.42-46.162c-4.2232-4.5857-9.948-7.1333-15.954-7.1333z" fill="#fff" stroke-width=".97794"/>
</svg>
