<svg width="512" height="512" version="1.1" viewBox="0 0 512 512" xmlns="http://www.w3.org/2000/svg">
<path d="m98.133 132.97c-7.0827-9.0754-7.0827-23.741 0-32.817 7.0827-9.0754 18.585-9.0754 25.668 0l108.79 139.4c7.0827 9.0754 7.0827 23.814 0 32.889l-108.79 139.4c-7.0828 9.0754-18.585 9.0754-25.668 0-7.0827-9.0754-7.0827-23.814 0-32.889l95.929-122.99zm148.17 239.57h163.19c10.029 0 18.132 10.382 18.132 23.233 0 12.851-8.1027 23.233-18.132 23.233h-163.19c-10.029 0-18.132-10.382-18.132-23.233 0-12.851 8.1027-23.233 18.132-23.233z" fill="#fff" stroke-width=".4"/>
<rect x="46" y="46" width="420" height="420" rx="65.486" ry="65.486" fill="none" stroke="#fff" stroke-miterlimit="40.8" stroke-width="35" style="paint-order:stroke fill markers"/>
</svg>
